<svg xmlns="http://www.w3.org/2000/svg" width="110" height="49"><path fill-rule="evenodd" clip-rule="evenodd" d="M98.594 47.939H71.832c-5.731 0-10.377-4.678-10.377-10.45V10.543C61.455 4.772 66.1.094 71.832.094h26.762c5.731 0 10.377 4.678 10.377 10.448V37.49c0 5.77-4.646 10.449-10.377 10.449z" fill="#E04141"/><path fill-rule="evenodd" clip-rule="evenodd" d="M85.213 15.296v15.961h-2.604V19.879l-4.823 8.026h-.317l-4.824-8.049v11.401h-2.604v-15.96h2.808l4.778 7.98 4.8-7.98h2.786zM96.785 24.6c-.34-1.848-1.63-2.806-3.239-2.806-1.811 0-3.08 1.072-3.419 2.805h6.658zm-6.808 2.005c.362 1.733 1.744 2.69 3.623 2.69 1.291 0 2.265-.478 2.922-1.412l2.015 1.185c-1.11 1.665-2.763 2.486-4.959 2.486-1.834 0-3.329-.57-4.461-1.688-1.132-1.14-1.699-2.577-1.699-4.31 0-1.71.567-3.123 1.676-4.264 1.11-1.162 2.559-1.732 4.303-1.732 1.653 0 3.011.593 4.076 1.756 1.064 1.162 1.608 2.6 1.608 4.264 0 .25-.023.592-.09 1.026h-9.014zm13.951 3.363c0 .853-.703 1.561-1.55 1.561-.847 0-1.55-.708-1.55-1.56 0-.854.661-1.562 1.55-1.562.847 0 1.55.708 1.55 1.561z" fill="#fff"/><path fill-rule="evenodd" clip-rule="evenodd" d="M6.793 28.798H2.604V24.33h4.19c1.2 0 2.15.98 2.15 2.234s-.95 2.234-2.15 2.234zM2.604 17.762h3.691c1.155 0 2.039.912 2.039 2.098s-.884 2.098-2.039 2.098h-3.69v-4.196zm6.726 5.222c1.064-.798 1.607-1.87 1.607-3.26 0-1.255-.452-2.304-1.358-3.148-.883-.843-1.993-1.276-3.284-1.276H0v15.96h6.793c1.336 0 2.446-.433 3.374-1.298.93-.867 1.382-1.962 1.382-3.261 0-1.665-.838-2.987-2.22-3.717zm6.51 1.619c.34-1.733 1.608-2.805 3.42-2.805 1.607 0 2.898.958 3.238 2.805H15.84zm3.442-5.04c-1.744 0-3.193.57-4.303 1.733-1.109 1.14-1.675 2.555-1.675 4.265 0 1.732.566 3.169 1.698 4.31 1.132 1.116 2.627 1.687 4.461 1.687 2.197 0 3.85-.821 4.96-2.486l-2.016-1.185c-.657.934-1.63 1.413-2.921 1.413-1.88 0-3.261-.958-3.623-2.69h9.012a6.75 6.75 0 00.091-1.026c0-1.665-.543-3.102-1.608-4.264-1.064-1.163-2.423-1.756-4.076-1.756zm17.381-2.895l-2.446.73v2.462H29.58v-3.192l-2.445.73v10.305c0 2.987 1.517 4.013 5.253 3.557v-2.212c-1.857.092-2.808.114-2.808-1.345v-5.472h4.637v5.472c0 2.987 1.517 4.013 5.254 3.557v-2.212c-1.858.092-2.808.114-2.808-1.345v-5.472h2.808V19.86h-2.808v-3.192zm7.231 7.935c.34-1.733 1.608-2.805 3.42-2.805 1.607 0 2.898.958 3.238 2.805h-6.658zm3.442-5.04c-1.744 0-3.193.57-4.303 1.733-1.109 1.14-1.675 2.555-1.675 4.265 0 1.732.566 3.169 1.698 4.31 1.133 1.116 2.627 1.687 4.462 1.687 2.196 0 3.849-.821 4.959-2.486l-2.016-1.185c-.657.934-1.63 1.413-2.921 1.413-1.88 0-3.261-.958-3.623-2.69h9.012a6.75 6.75 0 00.091-1.026c0-1.665-.543-3.102-1.608-4.264-1.064-1.163-2.423-1.756-4.076-1.756zm10.632 2.213V19.86h-2.446v11.4h2.446v-5.745c0-1.163.34-2.006 1.041-2.508.702-.525 1.517-.752 2.446-.684v-2.668c-1.699 0-2.876.707-3.487 2.12z"/></svg>